<svg width="30" height="31" viewBox="0 0 30 31" fill="none" xmlns="http://www.w3.org/2000/svg">
<g filter="url(#filter0_d_910_1355)">
<path d="M19.1249 12C19.1249 10.8542 18.7238 9.88021 17.9218 9.07812C17.1197 8.27604 16.1457 7.875 14.9999 7.875C13.854 7.875 12.8801 8.27604 12.078 9.07812C11.2759 9.88021 10.8749 10.8542 10.8749 12C10.8749 13.1458 11.2759 14.1198 12.078 14.9219C12.8801 15.724 13.854 16.125 14.9999 16.125C16.1457 16.125 17.1197 15.724 17.9218 14.9219C18.7238 14.1198 19.1249 13.1458 19.1249 12ZM3.99988 10.625V20.25C3.99988 21.0091 4.26843 21.6572 4.80554 22.1943C5.34265 22.7314 5.99076 23 6.74988 23H23.2499C24.009 23 24.6571 22.7314 25.1942 22.1943C25.7313 21.6572 25.9999 21.0091 25.9999 20.25V3.75C25.9999 2.99089 25.7313 2.34277 25.1942 1.80566C24.6571 1.26855 24.009 1 23.2499 1H6.74988C5.99076 1 5.34265 1.26855 4.80554 1.80566C4.26843 2.34277 3.99988 2.99089 3.99988 3.75V7.875H9.49988C10.1444 7.02995 10.9465 6.36035 11.9061 5.86621C12.8658 5.37207 13.897 5.125 14.9999 5.125C16.1027 5.125 17.134 5.37207 18.0936 5.86621C19.0533 6.36035 19.8553 7.02995 20.4999 7.875H25.9999V10.625H21.746C21.8319 11.0833 21.8749 11.5417 21.8749 12C21.8749 13.2461 21.5669 14.3955 20.951 15.4482C20.3352 16.501 19.5009 17.3353 18.4481 17.9512C17.3954 18.5671 16.246 18.875 14.9999 18.875C13.7538 18.875 12.6044 18.5671 11.5516 17.9512C10.4989 17.3353 9.66459 16.501 9.04871 15.4482C8.43282 14.3955 8.12488 13.2461 8.12488 12C8.12488 11.5417 8.16785 11.0833 8.25378 10.625H3.99988Z" fill="white"/>
</g>
<defs>
<filter id="filter0_d_910_1355" x="-1" y="0" width="32" height="32" filterUnits="userSpaceOnUse" color-interpolation-filters="sRGB">
<feFlood flood-opacity="0" result="BackgroundImageFix"/>
<feColorMatrix in="SourceAlpha" type="matrix" values="0 0 0 0 0 0 0 0 0 0 0 0 0 0 0 0 0 0 127 0" result="hardAlpha"/>
<feOffset dy="4"/>
<feGaussianBlur stdDeviation="2"/>
<feComposite in2="hardAlpha" operator="out"/>
<feColorMatrix type="matrix" values="0 0 0 0 0 0 0 0 0 0 0 0 0 0 0 0 0 0 0.25 0"/>
<feBlend mode="normal" in2="BackgroundImageFix" result="effect1_dropShadow_910_1355"/>
<feBlend mode="normal" in="SourceGraphic" in2="effect1_dropShadow_910_1355" result="shape"/>
</filter>
</defs>
</svg>
