<svg width="110" height="110" viewBox="0 0 110 110" fill="none" xmlns="http://www.w3.org/2000/svg">
<g filter="url(#filter0_d_879_295)">
<path d="M20 51C20 31.67 35.67 16 55 16C74.33 16 90 31.67 90 51C90 70.33 74.33 86 55 86C35.67 86 20 70.33 20 51Z" fill="white"/>
<path d="M55 31C55.9162 31 56.7949 31.3793 57.4427 32.0544C58.0906 32.7295 58.4545 33.6452 58.4545 34.6C58.4545 35.932 57.7636 37.102 56.7273 37.714V40H58.4545C61.6613 40 64.7366 41.3275 67.0041 43.6905C69.2716 46.0534 70.5455 49.2583 70.5455 52.6H72.2727C72.7308 52.6 73.1702 52.7896 73.4941 53.1272C73.818 53.4648 74 53.9226 74 54.4V59.8C74 60.2774 73.818 60.7352 73.4941 61.0728C73.1702 61.4104 72.7308 61.6 72.2727 61.6H70.5455V63.4C70.5455 64.3548 70.1815 65.2705 69.5336 65.9456C68.8858 66.6207 68.0071 67 67.0909 67H42.9091C41.9929 67 41.1142 66.6207 40.4664 65.9456C39.8185 65.2705 39.4545 64.3548 39.4545 63.4V61.6H37.7273C37.2692 61.6 36.8298 61.4104 36.5059 61.0728C36.182 60.7352 36 60.2774 36 59.8V54.4C36 53.9226 36.182 53.4648 36.5059 53.1272C36.8298 52.7896 37.2692 52.6 37.7273 52.6H39.4545C39.4545 49.2583 40.7284 46.0534 42.9959 43.6905C45.2634 41.3275 48.3387 40 51.5455 40H53.2727V37.714C52.2364 37.102 51.5455 35.932 51.5455 34.6C51.5455 33.6452 51.9094 32.7295 52.5573 32.0544C53.2051 31.3793 54.0838 31 55 31ZM47.2273 50.8C46.082 50.8 44.9837 51.2741 44.1739 52.118C43.364 52.9619 42.9091 54.1065 42.9091 55.3C42.9091 56.4935 43.364 57.6381 44.1739 58.482C44.9837 59.3259 46.082 59.8 47.2273 59.8C48.3725 59.8 49.4709 59.3259 50.2807 58.482C51.0905 57.6381 51.5455 56.4935 51.5455 55.3C51.5455 54.1065 51.0905 52.9619 50.2807 52.118C49.4709 51.2741 48.3725 50.8 47.2273 50.8ZM62.7727 50.8C61.6275 50.8 60.5291 51.2741 59.7193 52.118C58.9095 52.9619 58.4545 54.1065 58.4545 55.3C58.4545 56.4935 58.9095 57.6381 59.7193 58.482C60.5291 59.3259 61.6275 59.8 62.7727 59.8C63.918 59.8 65.0163 59.3259 65.8261 58.482C66.636 57.6381 67.0909 56.4935 67.0909 55.3C67.0909 54.1065 66.636 52.9619 65.8261 52.118C65.0163 51.2741 63.918 50.8 62.7727 50.8Z" fill="#000D26"/>
</g>
<defs>
<filter id="filter0_d_879_295" x="0" y="0" width="110" height="110" filterUnits="userSpaceOnUse" color-interpolation-filters="sRGB">
<feFlood flood-opacity="0" result="BackgroundImageFix"/>
<feColorMatrix in="SourceAlpha" type="matrix" values="0 0 0 0 0 0 0 0 0 0 0 0 0 0 0 0 0 0 127 0" result="hardAlpha"/>
<feOffset dy="4"/>
<feGaussianBlur stdDeviation="10"/>
<feColorMatrix type="matrix" values="0 0 0 0 0 0 0 0 0 0.0742857 0 0 0 0 0.216667 0 0 0 0.15 0"/>
<feBlend mode="normal" in2="BackgroundImageFix" result="effect1_dropShadow_879_295"/>
<feBlend mode="normal" in="SourceGraphic" in2="effect1_dropShadow_879_295" result="shape"/>
</filter>
</defs>
</svg>
