<svg width="110" height="110" viewBox="0 0 110 110" fill="none" xmlns="http://www.w3.org/2000/svg">
<g filter="url(#filter0_d_913_3396)">
<path d="M20 51C20 31.67 35.67 16 55 16C74.33 16 90 31.67 90 51C90 70.33 74.33 86 55 86C35.67 86 20 70.33 20 51Z" fill="white"/>
<path d="M56.7 62.9V66.3C56.7 66.7509 56.5209 67.1833 56.2021 67.5021C55.8833 67.8209 55.4509 68 55 68C54.5491 68 54.1167 67.8209 53.7979 67.5021C53.4791 67.1833 53.3 66.7509 53.3 66.3V62.9H49.9V66.3C49.9 66.7509 49.7209 67.1833 49.4021 67.5021C49.0833 67.8209 48.6509 68 48.2 68C47.7491 68 47.3167 67.8209 46.9979 67.5021C46.6791 67.1833 46.5 66.7509 46.5 66.3V62.9C46.5 62.8031 46.5085 62.7096 46.5238 62.6178C45.7976 62.3642 45.1379 61.95 44.594 61.406C44.05 60.8621 43.6358 60.2024 43.3822 59.4762C43.2891 59.4927 43.1946 59.5007 43.1 59.5H39.7C39.2491 59.5 38.8167 59.3209 38.4979 59.0021C38.1791 58.6833 38 58.2509 38 57.8C38 57.3491 38.1791 56.9167 38.4979 56.5979C38.8167 56.2791 39.2491 56.1 39.7 56.1H43.1V52.7H39.7C39.2491 52.7 38.8167 52.5209 38.4979 52.2021C38.1791 51.8833 38 51.4509 38 51C38 50.5491 38.1791 50.1167 38.4979 49.7979C38.8167 49.4791 39.2491 49.3 39.7 49.3H43.1V45.9H39.7C39.2491 45.9 38.8167 45.7209 38.4979 45.4021C38.1791 45.0833 38 44.6509 38 44.2C38 43.7491 38.1791 43.3167 38.4979 42.9979C38.8167 42.6791 39.2491 42.5 39.7 42.5H43.1C43.1969 42.5 43.2904 42.5085 43.3822 42.5238C43.8922 41.055 45.055 39.8922 46.5238 39.3822C46.5081 39.289 46.5001 39.1946 46.5 39.1V35.7C46.5 35.2491 46.6791 34.8167 46.9979 34.4979C47.3167 34.1791 47.7491 34 48.2 34C48.6509 34 49.0833 34.1791 49.4021 34.4979C49.7209 34.8167 49.9 35.2491 49.9 35.7V39.1H53.3V35.7C53.3 35.2491 53.4791 34.8167 53.7979 34.4979C54.1167 34.1791 54.5491 34 55 34C55.4509 34 55.8833 34.1791 56.2021 34.4979C56.5209 34.8167 56.7 35.2491 56.7 35.7V39.1H60.1V35.7C60.1 35.2491 60.2791 34.8167 60.5979 34.4979C60.9167 34.1791 61.3491 34 61.8 34C62.2509 34 62.6833 34.1791 63.0021 34.4979C63.3209 34.8167 63.5 35.2491 63.5 35.7V39.1C63.5 39.1952 63.4915 39.2904 63.4762 39.3822C64.945 39.8922 66.1078 41.055 66.6178 42.5238C66.7109 42.5073 66.8054 42.4993 66.9 42.5H70.3C70.7509 42.5 71.1833 42.6791 71.5021 42.9979C71.8209 43.3167 72 43.7491 72 44.2C72 44.6509 71.8209 45.0833 71.5021 45.4021C71.1833 45.7209 70.7509 45.9 70.3 45.9H66.9V49.3H70.3C70.7509 49.3 71.1833 49.4791 71.5021 49.7979C71.8209 50.1167 72 50.5491 72 51C72 51.4509 71.8209 51.8833 71.5021 52.2021C71.1833 52.5209 70.7509 52.7 70.3 52.7H66.9V56.1H70.3C70.7509 56.1 71.1833 56.2791 71.5021 56.5979C71.8209 56.9167 72 57.3491 72 57.8C72 58.2509 71.8209 58.6833 71.5021 59.0021C71.1833 59.3209 70.7509 59.5 70.3 59.5H66.9C66.8031 59.5 66.7096 59.4915 66.6178 59.4762C66.3642 60.2024 65.95 60.8621 65.406 61.406C64.8621 61.95 64.2024 62.3642 63.4762 62.6178C63.4932 62.7096 63.5 62.8048 63.5 62.9V66.3C63.5 66.7509 63.3209 67.1833 63.0021 67.5021C62.6833 67.8209 62.2509 68 61.8 68C61.3491 68 60.9167 67.8209 60.5979 67.5021C60.2791 67.1833 60.1 66.7509 60.1 66.3V62.9H56.7ZM51.6 45.9C51.1491 45.9 50.7167 46.0791 50.3979 46.3979C50.0791 46.7167 49.9 47.1491 49.9 47.6V54.4C49.9 54.8509 50.0791 55.2833 50.3979 55.6021C50.7167 55.9209 51.1491 56.1 51.6 56.1H58.4C58.8509 56.1 59.2833 55.9209 59.6021 55.6021C59.9209 55.2833 60.1 54.8509 60.1 54.4V47.6C60.1 47.1491 59.9209 46.7167 59.6021 46.3979C59.2833 46.0791 58.8509 45.9 58.4 45.9H51.6Z" fill="#000D26"/>
</g>
<defs>
<filter id="filter0_d_913_3396" x="0" y="0" width="110" height="110" filterUnits="userSpaceOnUse" color-interpolation-filters="sRGB">
<feFlood flood-opacity="0" result="BackgroundImageFix"/>
<feColorMatrix in="SourceAlpha" type="matrix" values="0 0 0 0 0 0 0 0 0 0 0 0 0 0 0 0 0 0 127 0" result="hardAlpha"/>
<feOffset dy="4"/>
<feGaussianBlur stdDeviation="10"/>
<feColorMatrix type="matrix" values="0 0 0 0 0 0 0 0 0 0.0742857 0 0 0 0 0.216667 0 0 0 0.15 0"/>
<feBlend mode="normal" in2="BackgroundImageFix" result="effect1_dropShadow_913_3396"/>
<feBlend mode="normal" in="SourceGraphic" in2="effect1_dropShadow_913_3396" result="shape"/>
</filter>
</defs>
</svg>
