<svg width="110" height="110" viewBox="0 0 110 110" fill="none" xmlns="http://www.w3.org/2000/svg">
<g filter="url(#filter0_d_879_237)">
<path d="M20 51C20 31.67 35.67 16 55 16C74.33 16 90 31.67 90 51C90 70.33 74.33 86 55 86C35.67 86 20 70.33 20 51Z" fill="white"/>
<path d="M63.0055 50.0733L65.9706 47.1076L58.8883 40.0238L55.9231 42.9896L48.1042 35.188C46.6311 33.7146 44.2325 33.7146 42.7594 35.188L39.171 38.7771C37.6978 40.2505 37.6978 42.6495 39.171 44.123L46.971 51.9246L38 60.9162V68H45.0824L54.0723 59.0083L61.8723 66.8099C63.6665 68.6045 66.084 67.9433 67.2171 66.8099L70.8055 63.2208C72.2787 61.7474 72.2787 59.3484 70.8055 57.8749L63.0055 50.0733ZM49.6718 49.2422L41.8528 41.4406L45.4223 37.8515L47.8209 40.2505L45.5923 42.4984L48.2553 45.1619L50.5027 42.914L53.2413 45.6531L49.6718 49.2422ZM64.5542 64.1464L56.7541 56.3448L60.3425 52.7557L63.081 55.4948L60.8336 57.7427L63.4965 60.4062L65.744 58.1583L68.1426 60.5573L64.5542 64.1464ZM71.4477 41.6295C71.6228 41.4547 71.7617 41.2471 71.8564 41.0186C71.9512 40.7901 72 40.5451 72 40.2977C72 40.0503 71.9512 39.8054 71.8564 39.5768C71.7617 39.3483 71.6228 39.1407 71.4477 38.966L67.0283 34.5457C66.1406 33.6579 64.913 33.9979 64.3653 34.5457L60.9091 38.0026L67.9915 45.0864L71.4477 41.6295Z" fill="#000D26"/>
</g>
<defs>
<filter id="filter0_d_879_237" x="0" y="0" width="110" height="110" filterUnits="userSpaceOnUse" color-interpolation-filters="sRGB">
<feFlood flood-opacity="0" result="BackgroundImageFix"/>
<feColorMatrix in="SourceAlpha" type="matrix" values="0 0 0 0 0 0 0 0 0 0 0 0 0 0 0 0 0 0 127 0" result="hardAlpha"/>
<feOffset dy="4"/>
<feGaussianBlur stdDeviation="10"/>
<feColorMatrix type="matrix" values="0 0 0 0 0 0 0 0 0 0.0742857 0 0 0 0 0.216667 0 0 0 0.15 0"/>
<feBlend mode="normal" in2="BackgroundImageFix" result="effect1_dropShadow_879_237"/>
<feBlend mode="normal" in="SourceGraphic" in2="effect1_dropShadow_879_237" result="shape"/>
</filter>
</defs>
</svg>
