<svg width="110" height="110" viewBox="0 0 110 110" fill="none" xmlns="http://www.w3.org/2000/svg">
<g filter="url(#filter0_d_879_257)">
<path d="M20 51C20 31.67 35.67 16 55 16C74.33 16 90 31.67 90 51C90 70.33 74.33 86 55 86C35.67 86 20 70.33 20 51Z" fill="white"/>
<path d="M51.838 34C53.0399 34 53.725 35.1974 53.725 36.3999V43.7697H52.2035C51.9076 43.0379 51.3665 42.4318 50.673 42.0553C49.9795 41.6789 49.1767 41.5555 48.4022 41.7063C47.6277 41.8571 46.9297 42.2727 46.4279 42.8819C45.926 43.491 45.6516 44.2559 45.6516 45.0453C45.6516 45.8347 45.926 46.5996 46.4279 47.2088C46.9297 47.818 47.6277 48.2336 48.4022 48.3844C49.1767 48.5352 49.9795 48.4118 50.673 48.0353C51.3665 47.6589 51.9076 47.0528 52.2035 46.321H53.725V64.8568C53.725 65.8705 53.2966 66.8791 52.3939 67.3401C51.5754 67.769 50.6659 67.9953 49.7419 68C47.1749 68 45.2658 66.7006 44.0367 65.163C43.1855 64.1019 42.5919 62.8577 42.3027 61.5283C41.5088 61.2939 40.7736 60.8939 40.1454 60.3547C38.9384 59.3155 38 57.6486 38 55.1926C38 53.9085 38.0918 52.7893 38.323 51.8487H45.48C46.6326 51.8487 47.588 52.6992 47.7495 53.8064C47.0209 54.108 46.4197 54.6535 46.0489 55.3497C45.678 56.0458 45.5605 56.8493 45.7164 57.6226C45.8724 58.3959 46.2921 59.0909 46.9038 59.5887C47.5155 60.0865 48.2811 60.3561 49.0696 60.3514C49.858 60.3467 50.6203 60.0679 51.226 59.5629C51.8317 59.0578 52.2432 58.3578 52.3899 57.5827C52.5366 56.8076 52.4095 56.0056 52.0303 55.3139C51.6512 54.6223 51.0435 54.0839 50.3114 53.7911C50.2221 52.5701 49.6743 51.4281 48.7781 50.5946C47.8819 49.761 46.7036 49.2976 45.48 49.2974H39.768C40.0226 49.0869 40.3059 48.914 40.6095 48.7838C40.4343 48.1588 40.3327 47.5155 40.3069 46.8669C40.2508 45.6168 40.4378 44.3157 40.8084 43.1574C41.1756 42.0178 41.757 40.9072 42.573 40.1401C43.0849 39.641 43.7334 39.3054 44.4362 39.1757C44.7745 37.747 45.6364 36.5666 46.7363 35.7111C48.149 34.6089 50.0003 34 51.8363 34H51.838ZM56.275 59.5026H59.08C60.365 59.5026 61.5973 58.9918 62.5059 58.0828C63.4145 57.1737 63.925 55.9407 63.925 54.6551V51.6021C64.6565 51.3061 65.2622 50.7647 65.6385 50.0708C66.0148 49.377 66.1381 48.5737 65.9874 47.7989C65.8367 47.024 65.4213 46.3256 64.8124 45.8236C64.2035 45.3215 63.439 45.0469 62.65 45.0469C61.861 45.0469 61.0965 45.3215 60.4876 45.8236C59.8787 46.3256 59.4633 47.024 59.3126 47.7989C59.1619 48.5737 59.2852 49.377 59.6615 50.0708C60.0378 50.7647 60.6435 51.3061 61.375 51.6021V54.6551C61.375 55.2641 61.1332 55.8481 60.7028 56.2788C60.2724 56.7094 59.6887 56.9513 59.08 56.9513H56.275V45.0572V45.0453V36.3999C56.275 35.1974 56.9601 34 58.162 34C60.0014 34 61.851 34.6089 63.2637 35.7111C64.3636 36.5666 65.2255 37.7487 65.5638 39.1757C66.2778 39.2947 66.9136 39.6587 67.427 40.1401C68.243 40.9072 68.8244 42.0161 69.1916 43.1574C69.5622 44.3157 69.7492 45.6168 69.6931 46.8669C69.6642 47.5065 69.5707 48.1596 69.3905 48.7838L69.5027 48.8348C70.1317 49.1308 70.6417 49.5951 71.0225 50.2125C71.745 51.3776 72 53.0546 72 55.1926C72 57.6503 71.0616 59.3189 69.8546 60.3547C69.2259 60.8941 68.4901 61.2941 67.6956 61.5283C67.4068 62.8575 66.8139 64.1017 65.9633 65.163C64.7342 66.7006 62.8251 68 60.2564 68C59.3325 67.9959 58.4231 67.7701 57.6044 67.3418C56.7034 66.8791 56.275 65.8705 56.275 64.8568V59.5026ZM48.2 45.0453C48.2 44.8198 48.2896 44.6035 48.449 44.444C48.6084 44.2845 48.8246 44.1949 49.05 44.1949C49.2754 44.1949 49.4916 44.2845 49.651 44.444C49.8104 44.6035 49.9 44.8198 49.9 45.0453C49.9 45.2709 49.8104 45.4872 49.651 45.6467C49.4916 45.8062 49.2754 45.8957 49.05 45.8957C48.8246 45.8957 48.6084 45.8062 48.449 45.6467C48.2896 45.4872 48.2 45.2709 48.2 45.0453ZM49.05 56.1009C48.8246 56.1009 48.6084 56.1904 48.449 56.3499C48.2896 56.5094 48.2 56.7257 48.2 56.9513C48.2 57.1768 48.2896 57.3931 48.449 57.5526C48.6084 57.7121 48.8246 57.8017 49.05 57.8017C49.2754 57.8017 49.4916 57.7121 49.651 57.5526C49.8104 57.3931 49.9 57.1768 49.9 56.9513C49.9 56.7257 49.8104 56.5094 49.651 56.3499C49.4916 56.1904 49.2754 56.1009 49.05 56.1009ZM61.8 48.447C61.8 48.6726 61.8896 48.8889 62.049 49.0484C62.2084 49.2079 62.4246 49.2974 62.65 49.2974C62.8754 49.2974 63.0916 49.2079 63.251 49.0484C63.4104 48.8889 63.5 48.6726 63.5 48.447C63.5 48.2215 63.4104 48.0052 63.251 47.8457C63.0916 47.6862 62.8754 47.5966 62.65 47.5966C62.4246 47.5966 62.2084 47.6862 62.049 47.8457C61.8896 48.0052 61.8 48.2215 61.8 48.447Z" fill="#000D26"/>
</g>
<defs>
<filter id="filter0_d_879_257" x="0" y="0" width="110" height="110" filterUnits="userSpaceOnUse" color-interpolation-filters="sRGB">
<feFlood flood-opacity="0" result="BackgroundImageFix"/>
<feColorMatrix in="SourceAlpha" type="matrix" values="0 0 0 0 0 0 0 0 0 0 0 0 0 0 0 0 0 0 127 0" result="hardAlpha"/>
<feOffset dy="4"/>
<feGaussianBlur stdDeviation="10"/>
<feColorMatrix type="matrix" values="0 0 0 0 0 0 0 0 0 0.0742857 0 0 0 0 0.216667 0 0 0 0.15 0"/>
<feBlend mode="normal" in2="BackgroundImageFix" result="effect1_dropShadow_879_257"/>
<feBlend mode="normal" in="SourceGraphic" in2="effect1_dropShadow_879_257" result="shape"/>
</filter>
</defs>
</svg>
