<svg width="32" height="32" viewBox="0 0 32 32" fill="none" xmlns="http://www.w3.org/2000/svg">
<path d="M7.63829 24.4591L4.27029 29.6591L4.62869 31.3599L6.32469 30.9967L9.69109 25.7999C8.96718 25.4169 8.28002 24.968 7.63829 24.4591ZM21.8975 22.6431C21.9199 22.5967 21.9343 22.5455 21.9551 22.4959C22.0399 22.3087 22.1151 22.1215 22.1759 21.9247C22.1855 21.8895 22.1903 21.8543 22.2015 21.8223C22.2639 21.6073 22.3162 21.3895 22.3583 21.1695V21.1359C22.6703 19.2655 22.1263 17.1791 20.8815 15.2943L22.6575 12.5519C24.7039 12.8127 26.4735 12.2975 27.3247 10.9807C28.8015 8.70395 27.0047 4.91355 23.3167 2.51195C19.6255 0.108746 15.4399 0.00794542 13.9663 2.28155C13.1119 3.59995 13.3615 5.42875 14.4351 7.19835L12.6559 9.94075C10.4335 9.56795 8.31029 9.91515 6.73109 10.9647C6.72149 10.9679 6.71029 10.9711 6.70389 10.9775C6.51937 11.103 6.34203 11.2387 6.17269 11.3839C6.14549 11.4063 6.11349 11.4271 6.09109 11.4495C5.93748 11.5853 5.79265 11.7306 5.65749 11.8847C5.62549 11.9231 5.58069 11.9567 5.55029 11.9967C5.37988 12.1897 5.22474 12.3957 5.08629 12.6127C2.87189 16.0255 4.76149 21.1903 9.29909 24.1471C13.8399 27.1039 19.3151 26.7295 21.5247 23.3167C21.6639 23.1007 21.7919 22.8751 21.8975 22.6431ZM20.5935 6.71035C19.1743 5.78715 18.4815 4.33115 19.0495 3.45275C19.6159 2.57755 21.2271 2.61755 22.6431 3.54075C24.0655 4.46395 24.7519 5.92315 24.1871 6.79835C23.6223 7.67355 22.0143 7.63355 20.5935 6.71035Z" fill="#009FAC"/>
</svg>
